<?xml version="1.0" encoding="UTF-8" standalone="no"?>
<svg
   height="16"
   width="20"
   viewBox="0 0 640 512"
   version="1.1"
   xmlns="http://www.w3.org/2000/svg"
   xmlns:svg="http://www.w3.org/2000/svg">
  <path
     id="rect1"
     d="m 309.75,3.5 a 54.031206,51.377476 0 0 0 -25.5,6.0625 L 78.875,113.625 320.6875,236.875 551.5,119.875 335.1875,9.5625 A 54.031206,51.377476 0 0 0 309.75,3.5 Z m -1.6875,51.75 c 65.02698,-0.0094 117.76274,22.887584 117.75,51.125 -0.0364,15.73578 -16.73073,30.5767 -45.3125,40.25 l 12.125,35.25 -41.875,-27.9375 c -13.59306,2.3252 -28.07791,3.475 -42.6875,3.5 -65.02698,0.009 -117.76274,-22.82509 -117.75,-51.0625 -0.0127,-28.237416 52.72302,-51.134406 117.75,-51.125 z m -40.5,42.5 a 11.386302,11.386302 0 0 0 -11.375,11.375 11.386302,11.386302 0 0 0 11.375,11.375 11.386302,11.386302 0 0 0 11.375,-11.375 11.386302,11.386302 0 0 0 -11.375,-11.375 z m 35.875,0 a 11.386302,11.386302 0 0 0 -11.375,11.375 11.386302,11.386302 0 0 0 11.375,11.375 11.386302,11.386302 0 0 0 11.375,-11.375 11.386302,11.386302 0 0 0 -11.375,-11.375 z m 35.875,0 a 11.386302,11.386302 0 0 0 -11.375,11.375 11.386302,11.386302 0 0 0 11.375,11.375 11.386302,11.386302 0 0 0 11.375,-11.375 11.386302,11.386302 0 0 0 -11.375,-11.375 z M 62.5,137.625 v 223.1875 a 41.160261,39.138684 0 0 0 21.75,34.5 L 304.25,507.5 V 260.9375 Z m 515,1.125 L 335.75,262 V 508.5 L 558.5625,394.875 a 35.811521,34.052646 0 0 0 18.9375,-30 z m -44.125,42.8125 V 195.75 c -24.86614,36.5438 -47.60311,68.20797 -68.3125,95 l 0.4375,0.125 90.75,-57.4375 c -1.1134,31.94839 -3.58941,58.84169 -7.375,80.8125 -3.71136,21.85259 -8.30795,36.84512 -13.875,45 -5.56703,8.1549 -12.11632,14.63805 -19.6875,19.4375 -5.19591,3.29373 -11.70614,6.32808 -19.5,9.0625 -0.59381,-1.33161 -1.46081,-3.66469 -2.5,-7.0625 -1.03918,-3.39781 -1.99601,-6.09788 -2.8125,-8 14.25164,-5.47585 23.48,-9.47457 27.5625,-12.0625 2.15258,-1.36454 3.86312,-3.4574 5.125,-6.25 1.33609,-2.91083 3.41764,-9.60749 6.3125,-20.125 2.89487,-10.58869 5.08967,-22.04033 6.5,-34.25 1.41032,-12.28081 2.40617,-25.55839 3,-39.8125 L 516.8125,274.25 c -3.71136,31.95838 -13.63096,61.30267 -29.8125,88 -16.1073,26.65028 -30.97891,47.03434 -44.5625,61.125 L 432.25,416.5 c 17.51763,-20.14287 31.85419,-39.54465 43.0625,-58.25 11.28254,-18.82358 20.07742,-43.60099 26.3125,-74.3125 l -22.875,14.5 c -6.08662,37.66298 -25.50405,76.84668 -58.3125,117.5 L 409.375,409.75 c 18.77948,-23.71831 31.71013,-43.60169 38.6875,-59.625 6.97735,-16.02334 11.66378,-29.7579 14.1875,-41.25 l -23.1875,14.6875 v -17.125 c 30.58163,-40.5939 52.3735,-70.76064 65.4375,-90.5 L 430.25,263 v -16 z m -385,43.25 48.5625,24.3125 60.375,199.375 -43.625,-21.875 -11.25,-39.8125 L 141.8125,356.5 130.5,385 88.0625,363.75 Z M 397.0625,275 c 7.97943,-0.16546 15.1443,1.10698 21.5,3.75 l -11,21.5 c -5.64128,-5.67573 -17.31046,-7.32566 -35.125,-5 l 9.375,-18.375 c 5.37219,-1.11033 10.46234,-1.77572 15.25,-1.875 z m -224.9375,4.9375 -20.125,50.625 40.1875,20.125 z m 217.5625,44.625 c 8.02002,-0.0466 14.96711,1.68722 20.8125,5.1875 l -11.3125,21.75 c -6.23509,-6.58032 -17.83793,-8.76599 -34.6875,-6.625 l 9.625,-18.3125 c 5.59488,-1.30487 10.75048,-1.97201 15.5625,-2 z M 416.75,360.875 c -6.08662,27.55718 -18.76341,61.08011 -38.0625,100.5 -2.15259,0.36819 -4.96055,0.47925 -8.375,0.4375 -3.34023,-0.0888 -5.867,-0.0561 -7.5,0.125 17.74031,-31.10149 31.09273,-64.39205 40,-100 z" />
</svg>
